<svg width="24" height="24" viewBox="0 0 24 24" fill="none" xmlns="http://www.w3.org/2000/svg">
<g id="material-symbols:arrow-outward-rounded">
<path id="Vector" d="M16.0001 9.66319L7.12515 18.5632C6.92515 18.7632 6.68748 18.8632 6.41215 18.8632C6.13681 18.8632 5.89948 18.7632 5.70015 18.5632C5.50015 18.3632 5.40015 18.1255 5.40015 17.8502C5.40015 17.5749 5.50015 17.3375 5.70015 17.1382L14.6001 8.26319H7.00015C6.71681 8.26319 6.47915 8.16719 6.28715 7.97519C6.09515 7.78319 5.99948 7.54585 6.00015 7.26319C6.00015 6.97985 6.09615 6.74219 6.28815 6.55019C6.48015 6.35819 6.71748 6.26252 7.00015 6.26319H17.0001C17.2835 6.26319 17.5211 6.35919 17.7131 6.55119C17.9051 6.74319 18.0008 6.98052 18.0001 7.26319V17.2632C18.0001 17.5465 17.9041 17.7842 17.7121 17.9762C17.5201 18.1682 17.2828 18.2639 17.0001 18.2632C16.7168 18.2632 16.4791 18.1672 16.2871 17.9752C16.0951 17.7832 15.9995 17.5459 16.0001 17.2632V9.66319Z" fill="black"/>
</g>
</svg>
