<svg width="13" height="13" viewBox="0 0 13 13" fill="none" xmlns="http://www.w3.org/2000/svg">
<path d="M10.9999 3.66319L2.1249 12.5632C1.9249 12.7632 1.68724 12.8632 1.4119 12.8632C1.13657 12.8632 0.899235 12.7632 0.699902 12.5632C0.499902 12.3632 0.399902 12.1255 0.399902 11.8502C0.399902 11.5749 0.499902 11.3375 0.699902 11.1382L9.5999 2.26319H1.9999C1.71657 2.26319 1.4789 2.16719 1.2869 1.97519C1.0949 1.78319 0.999236 1.54585 0.999902 1.26319C0.999902 0.979854 1.0959 0.742187 1.2879 0.550187C1.4799 0.358187 1.71724 0.26252 1.9999 0.263187H11.9999C12.2832 0.263187 12.5209 0.359187 12.7129 0.551187C12.9049 0.743187 13.0006 0.98052 12.9999 1.26319V11.2632C12.9999 11.5465 12.9039 11.7842 12.7119 11.9762C12.5199 12.1682 12.2826 12.2639 11.9999 12.2632C11.7166 12.2632 11.4789 12.1672 11.2869 11.9752C11.0949 11.7832 10.9992 11.5459 10.9999 11.2632V3.66319Z" fill="white"/>
</svg>
