<svg width="30" height="30" viewBox="0 0 30 30" fill="none" xmlns="http://www.w3.org/2000/svg">
<g id="Frame">
<path id="Vector" fill-rule="evenodd" clip-rule="evenodd" d="M28.8 15.3271C28.8 14.3077 28.7085 13.3276 28.5386 12.3867H15V17.9472H22.7364C22.4031 19.7441 21.3904 21.2665 19.8679 22.2859V25.8927H24.5136C27.2319 23.3901 28.8 19.7049 28.8 15.3271Z" fill="#4285F4"/>
<path id="Vector_2" fill-rule="evenodd" clip-rule="evenodd" d="M15 29.3752C18.8813 29.3752 22.1351 28.0879 24.5136 25.8924L19.8679 22.2857C18.5806 23.1482 16.934 23.6578 15 23.6578C11.2559 23.6578 8.08689 21.1291 6.95649 17.7314H2.15393V21.4558C4.51928 26.1538 9.38064 29.3752 15 29.3752Z" fill="#34A853"/>
<path id="Vector_3" fill-rule="evenodd" clip-rule="evenodd" d="M6.95654 17.7314C6.66904 16.8689 6.50569 15.9475 6.50569 15.0001C6.50569 14.0526 6.66904 13.1314 6.95654 12.2689V8.54443H2.15398C1.1804 10.4851 0.625 12.6805 0.625 15.0001C0.625 17.3197 1.1804 19.5151 2.15398 21.4557L6.95654 17.7314Z" fill="#FBBC05"/>
<path id="Vector_4" fill-rule="evenodd" clip-rule="evenodd" d="M15 6.34233C17.1105 6.34233 19.0054 7.06761 20.4951 8.49205L24.6181 4.36904C22.1286 2.04944 18.8746 0.625 15 0.625C9.38064 0.625 4.51928 3.84631 2.15393 8.54431L6.95649 12.2687C8.08689 8.87102 11.2559 6.34233 15 6.34233Z" fill="#EA4335"/>
</g>
</svg>
