<svg width="1920" height="684" viewBox="0 0 1920 684" fill="none" xmlns="http://www.w3.org/2000/svg">
<path d="M1557.14 270.099L1570.86 246.343L1583.98 269.755L1570.26 293.512L1557.14 270.099Z" fill="white"/>
<path d="M1554.36 269.932L1568.7 245.096L1508.92 245.139L1538.54 193.846L1511.47 193.338L1482.17 244.092L1496.6 268.979L1526.22 268.802L1540.87 294.541L1568.25 294.508L1554.36 269.932Z" fill="white"/>
<path d="M1540.33 243.114L1554.67 218.277L1540.7 195.093L1512.95 243.147L1540.33 243.114Z" fill="white"/>
<path d="M1860.14 166.099L1873.86 142.343L1886.98 165.755L1873.26 189.512L1860.14 166.099Z" fill="white"/>
<path d="M1857.36 165.932L1871.7 141.096L1811.92 141.139L1841.54 89.8456L1814.47 89.3384L1785.17 140.092L1796.5 165L1829.22 164.802L1843.87 190.541L1871.25 190.508L1857.36 165.932Z" fill="white"/>
<path d="M1843.33 139.114L1857.67 114.277L1843.7 91.0928L1815.95 139.147L1843.33 139.114Z" fill="white"/>
<path d="M1736.34 166.099L1722.63 142.343L1709.51 165.755L1723.23 189.512L1736.34 166.099Z" fill="white"/>
<path d="M1739.13 165.932L1724.79 141.096L1784.57 141.139L1754.95 89.8456L1782.02 89.3384L1811.32 140.092L1796.89 164.979L1767.27 164.802L1752.62 190.541L1725.24 190.508L1739.13 165.932Z" fill="white"/>
<path d="M1753.16 139.114L1738.82 114.277L1752.79 91.0928L1780.54 139.147L1753.16 139.114Z" fill="white"/>
<path d="M1872.34 243.099L1858.63 219.343L1845.51 242.755L1859.23 266.512L1872.34 243.099Z" fill="white"/>
<path d="M1875.13 242.932L1860.79 218.096L1920.57 218.139L1890.95 166.846L1918.02 166.338L1947.32 217.092L1932.89 241.979L1903.27 241.802L1888.62 267.541L1861.24 267.508L1875.13 242.932Z" fill="white"/>
<path d="M1889.16 216.114L1874.82 191.277L1888.79 168.093L1916.54 216.147L1889.16 216.114Z" fill="white"/>
<path d="M1480.06 346.438L1508.73 346.438L1478.81 294.691L1538.04 294.691L1524.94 271L1466.34 271L1452 295.938L1466.96 321.5L1452 347.062L1465.72 370.753L1480.06 346.438Z" fill="white"/>
<path d="M1812.18 244.932L1784.75 244.932L1798.47 268L1825.9 268L1812.18 244.932Z" fill="white"/>
<path d="M1813.43 242.438L1784.75 242.438L1814.68 190.691L1755.45 190.691L1768.54 167L1827.15 167L1841.49 191.938L1826.52 217.5L1841.49 243.062L1827.77 266.753L1813.43 242.438Z" fill="white"/>
<path d="M1797.22 216.876L1768.54 216.876L1755.45 193.185L1810.94 193.185L1797.22 216.876Z" fill="white"/>
<path d="M1737.35 270.932L1708.65 270.932L1723 294L1751.7 294L1737.35 270.932Z" fill="white"/>
<path d="M1738.65 268.438L1708.65 268.438L1739.96 216.691L1678 216.691L1691.7 193L1753 193L1766.93 218L1752.35 243.5L1768 269.062L1753.65 292.753L1738.65 268.438Z" fill="white"/>
<path d="M1721.7 242.876L1691.7 242.876L1678 219.185L1736.04 219.185L1721.7 242.876Z" fill="white"/>
<path d="M1663.14 192.099L1676.86 168.343L1689.98 191.755L1676.26 215.512L1663.14 192.099Z" fill="white"/>
<path d="M1660.36 191.932L1674.7 167.096L1614.92 167.139L1645.04 115.338L1618 115L1588 166.5L1602.6 190.979L1632.22 190.802L1646.87 216.541L1674.25 216.508L1660.36 191.932Z" fill="white"/>
<path d="M1646.33 165.114L1660.88 139.777L1647.5 116L1618.95 165.146L1646.33 165.114Z" fill="white"/>
<path d="M1963.36 87.9325L1977.7 63.0957L1917.92 63.1389L1947.54 11.8456L1920.47 11.3384L1891.17 62.0918L1905.6 86.9793L1935.22 86.8019L1949.87 112.541L1977.25 112.508L1963.36 87.9325Z" fill="white"/>
<path d="M1569.4 191.945L1555.69 215.702L1542.06 193.034L1556.28 168.532L1569.4 191.945Z" fill="white"/>
<path d="M1572.19 192.112L1557.85 216.949L1617.62 216.906L1588.01 268.199L1615.07 268.706L1644.38 217.953L1629.95 193.065L1600.33 193.243L1585.67 167.503L1558.3 167.536L1572.19 192.112Z" fill="white"/>
<path d="M1586.22 218.931L1572.5 244L1586 267.5L1613.59 218.898L1586.22 218.931Z" fill="white"/>
<path d="M1872.4 87.9447L1858.69 111.702L1845.06 89.0341L1859.28 64.5323L1872.4 87.9447Z" fill="white"/>
<path d="M1875.19 88.1119L1860.85 112.949L1920.62 112.906L1891.01 164.199L1918.07 164.706L1947.38 113.953L1932.95 89.0651L1903.33 89.2426L1888.67 63.5034L1861.3 63.5362L1875.19 88.1119Z" fill="white"/>
<path d="M1889.22 114.931L1875.5 140L1889 163.5L1916.59 114.898L1889.22 114.931Z" fill="white"/>
<path d="M1724.08 87.9447L1737.8 111.702L1751.43 89.0341L1737.2 64.5323L1724.08 87.9447Z" fill="white"/>
<path d="M1721.3 88.1119L1735.64 112.949L1675.86 112.906L1705.48 164.199L1678.41 164.706L1649.11 113.953L1663.54 89.0651L1693.16 89.2426L1707.81 63.5034L1735.19 63.5362L1721.3 88.1119Z" fill="white"/>
<path d="M1707.27 114.931L1720.99 140L1707.49 163.5L1679.89 114.898L1707.27 114.931Z" fill="white"/>
<path d="M362.345 270.099L348.629 246.343L335.509 269.755L349.225 293.512L362.345 270.099Z" fill="white"/>
<path d="M365.128 269.932L350.788 245.096L410.565 245.139L380.951 193.846L408.015 193.338L437.317 244.092L422.89 268.979L393.271 268.802L378.616 294.541L351.24 294.508L365.128 269.932Z" fill="white"/>
<path d="M379.16 243.114L364.821 218.277L378.792 195.093L406.536 243.147L379.16 243.114Z" fill="white"/>
<path d="M59.3446 166.099L45.6285 142.343L32.5091 165.755L46.2252 189.512L59.3446 166.099Z" fill="white"/>
<path d="M62.1278 165.932L47.7883 141.096L107.565 141.139L77.9512 89.8456L105.015 89.3384L134.317 140.092L122.987 165L90.2713 164.802L75.6157 190.541L48.2403 190.508L62.1278 165.932Z" fill="white"/>
<path d="M76.1602 139.114L61.8207 114.277L75.7917 91.0928L103.536 139.147L76.1602 139.114Z" fill="white"/>
<path d="M183.142 166.099L196.858 142.343L209.978 165.755L196.262 189.512L183.142 166.099Z" fill="white"/>
<path d="M180.359 165.932L194.699 141.096L134.921 141.139L164.536 89.8456L137.472 89.3384L108.17 140.092L122.597 164.979L152.216 164.802L166.871 190.541L194.246 190.508L180.359 165.932Z" fill="white"/>
<path d="M166.327 139.114L180.666 114.277L166.695 91.0928L138.951 139.147L166.327 139.114Z" fill="white"/>
<path d="M47.1423 243.099L60.8583 219.343L73.9777 242.755L60.2616 266.512L47.1423 243.099Z" fill="white"/>
<path d="M44.359 242.932L58.6985 218.096L-1.07859 218.139L28.5356 166.846L1.472 166.338L-27.8305 217.092L-13.403 241.979L16.2155 241.802L30.8712 267.541L58.2465 267.508L44.359 242.932Z" fill="white"/>
<path d="M30.3266 216.114L44.6661 191.277L30.6951 168.093L2.95126 216.147L30.3266 216.114Z" fill="white"/>
<path d="M439.431 346.438L410.752 346.438L440.678 294.691L381.45 294.691L394.542 271L453.147 271L467.487 295.938L452.524 321.5L467.487 347.062L453.771 370.753L439.431 346.438Z" fill="white"/>
<path d="M107.302 244.932L134.734 244.932L121.018 268L93.586 268L107.302 244.932Z" fill="white"/>
<path d="M106.055 242.438L134.734 242.438L104.808 190.691L164.037 190.691L150.944 167L92.3391 167L77.9996 191.938L92.9626 217.5L77.9996 243.062L91.7157 266.753L106.055 242.438Z" fill="white"/>
<path d="M122.265 216.876L150.944 216.876L164.037 193.185L108.549 193.185L122.265 216.876Z" fill="white"/>
<path d="M182.139 270.932L210.835 270.932L196.487 294L167.791 294L182.139 270.932Z" fill="white"/>
<path d="M180.835 268.438L210.835 268.438L179.53 216.691L241.487 216.691L227.791 193L166.487 193L152.559 218L167.139 243.5L151.487 269.062L165.835 292.753L180.835 268.438Z" fill="white"/>
<path d="M197.791 242.876L227.791 242.876L241.487 219.185L183.443 219.185L197.791 242.876Z" fill="white"/>
<path d="M256.345 192.099L242.629 168.343L229.509 191.755L243.225 215.512L256.345 192.099Z" fill="white"/>
<path d="M259.128 191.932L244.788 167.096L304.565 167.139L274.444 115.338L301.487 115L331.487 166.5L316.89 190.979L287.271 190.802L272.616 216.541L245.24 216.508L259.128 191.932Z" fill="white"/>
<path d="M273.16 165.114L258.609 139.777L271.987 116L300.536 165.146L273.16 165.114Z" fill="white"/>
<path d="M-43.8722 87.9325L-58.2117 63.0957L1.5654 63.1389L-28.0488 11.8456L-0.985182 11.3384L28.3173 62.0918L13.8899 86.9793L-15.7287 86.8019L-30.3843 112.541L-57.7597 112.508L-43.8722 87.9325Z" fill="white"/>
<path d="M350.083 191.945L363.799 215.702L377.427 193.034L363.202 168.532L350.083 191.945Z" fill="white"/>
<path d="M347.3 192.112L361.639 216.949L301.862 216.906L331.476 268.199L304.413 268.706L275.11 217.953L289.538 193.065L319.156 193.243L333.812 167.503L361.187 167.536L347.3 192.112Z" fill="white"/>
<path d="M333.268 218.931L346.987 244L333.487 267.5L305.892 218.898L333.268 218.931Z" fill="white"/>
<path d="M47.0828 87.9447L60.7989 111.702L74.4275 89.0341L60.2022 64.5323L47.0828 87.9447Z" fill="white"/>
<path d="M44.2997 88.1119L58.6392 112.949L-1.13791 112.906L28.4763 164.199L1.41267 164.706L-27.8898 113.953L-13.4624 89.0651L16.1562 89.2426L30.8118 63.5034L58.1872 63.5362L44.2997 88.1119Z" fill="white"/>
<path d="M30.2677 114.931L43.9872 140L30.4871 163.5L2.89238 114.898L30.2677 114.931Z" fill="white"/>
<path d="M195.404 87.9447L181.688 111.702L168.059 89.0341L182.285 64.5323L195.404 87.9447Z" fill="white"/>
<path d="M198.187 88.1119L183.848 112.949L243.625 112.906L214.011 164.199L241.074 164.706L270.377 113.953L255.949 89.0651L226.331 89.2426L211.675 63.5034L184.3 63.5362L198.187 88.1119Z" fill="white"/>
<path d="M212.219 114.931L198.5 140L212 163.5L239.594 114.898L212.219 114.931Z" fill="white"/>
<path d="M869.668 310.108L850.271 290.711L843.658 316.721L863.056 336.119L869.668 310.108Z" fill="white"/>
<path d="M872.313 309.227L852.034 288.948L909.786 273.518L867.905 231.637L893.915 224.143L935.355 265.583L927.861 293.356L899.205 300.851L891.711 329.506L865.26 336.56L872.313 309.227Z" fill="white"/>
<path d="M878.926 279.69L858.647 259.411L866.141 233.401L905.377 272.636L878.926 279.69Z" fill="white"/>
<path d="M550.076 288.074L530.678 268.677L524.065 294.687L543.463 314.084L550.076 288.074Z" fill="white"/>
<path d="M552.721 287.193L532.441 266.914L590.193 251.484L548.312 209.603L574.322 202.109L615.762 243.548L611.265 270.54L579.612 278.816L572.118 307.472L545.667 314.525L552.721 287.193Z" fill="white"/>
<path d="M559.333 257.656L539.054 237.377L546.549 211.366L585.784 250.602L559.333 257.656Z" fill="white"/>
<path d="M669.655 256.034L676.755 229.536L695.487 248.756L688.387 275.253L669.655 256.034Z" fill="white"/>
<path d="M666.923 256.593L674.346 228.891L616.617 244.404L631.946 187.194L605.673 193.708L590.505 250.316L610.882 270.622L639.446 262.785L660.264 283.853L686.698 276.737L666.923 256.593Z" fill="white"/>
<path d="M646.428 234.319L653.851 206.617L634.355 187.839L619.994 241.436L646.428 234.319Z" fill="white"/>
<path d="M558.218 365.609L565.318 339.112L584.05 358.331L576.95 384.829L558.218 365.609Z" fill="white"/>
<path d="M555.486 366.168L562.909 338.466L505.18 353.98L520.509 296.769L494.236 303.284L479.068 359.892L499.445 380.197L528.009 372.36L548.827 393.429L575.261 386.312L555.486 366.168Z" fill="white"/>
<path d="M534.991 343.895L542.414 316.193L522.918 297.415L508.557 351.012L534.991 343.895Z" fill="white"/>
<path d="M963.886 363.895L936.184 371.318L951.697 313.589L894.487 328.918L901.002 302.646L957.61 287.477L977.915 307.855L970.078 336.418L991.147 357.236L984.03 383.67L963.886 363.895Z" fill="white"/>
<path d="M616.802 351.809L643.299 344.709L636.021 370.541L609.523 377.641L616.802 351.809Z" fill="white"/>
<path d="M614.952 349.723L642.654 342.3L600.355 300.062L657.565 284.733L638.787 265.237L582.179 280.405L574.782 308.205L595.851 329.023L588.014 357.587L607.394 376.921L614.952 349.723Z" fill="white"/>
<path d="M623.994 320.837L651.695 313.414L658.21 287.142L604.613 301.503L623.994 320.837Z" fill="white"/>
<path d="M695.819 357.554L723.536 350.127L715.648 376.122L687.93 383.549L695.819 357.554Z" fill="white"/>
<path d="M693.913 355.482L722.891 347.718L679.26 305.836L739.105 289.801L719.745 270.461L660.529 286.328L653.546 314.081L674.229 334.938L665.726 363.68L685.717 382.851L693.913 355.482Z" fill="white"/>
<path d="M703.676 326.403L732.653 318.638L739.751 292.21L683.685 307.232L703.676 326.403Z" fill="white"/>
<path d="M747.092 262.202L727.694 242.804L721.082 268.814L740.479 288.212L747.092 262.202Z" fill="white"/>
<path d="M749.737 261.32L729.458 241.041L787.209 225.611L744.707 183.372L770.741 176.046L813.048 218.026L805.284 245.45L776.629 252.944L769.134 281.599L742.683 288.653L749.737 261.32Z" fill="white"/>
<path d="M756.35 231.783L735.737 211.076L742.505 184.647L782.801 224.729L756.35 231.783Z" fill="white"/>
<path d="M427.499 240.167L408.102 220.77L401.489 246.78L420.887 266.177L427.499 240.167Z" fill="white"/>
<path d="M430.144 239.285L409.865 219.006L467.617 203.577L425.736 161.696L451.746 154.201L493.186 195.641L485.692 223.415L457.036 230.909L449.542 259.565L423.091 266.618L430.144 239.285Z" fill="white"/>
<path d="M436.757 209.748L416.478 189.469L423.973 163.459L463.208 202.695L436.757 209.748Z" fill="white"/>
<path d="M834.951 238.673L855.23 258.952L797.479 274.382L839.36 316.263L813.35 323.757L771.91 282.317L779.404 254.544L808.059 247.049L815.554 218.394L842 211.501L834.951 238.673Z" fill="white"/>
<path d="M828.338 268.21L848.079 288.874L841.121 315.067L801.887 275.264L828.338 268.21Z" fill="white"/>
<path d="M518.003 215.757L537.401 235.154L544.698 209.731L524.616 189.746L518.003 215.757Z" fill="white"/>
<path d="M515.359 216.638L535.638 236.918L477.886 252.347L519.767 294.228L493.757 301.723L452.317 260.283L459.811 232.509L488.467 225.015L495.961 196.359L522.412 189.306L515.359 216.638Z" fill="white"/>
<path d="M508.746 246.175L528.486 266.839L521.528 293.032L482.295 253.229L508.746 246.175Z" fill="white"/>
<path d="M661.27 177.368L654.17 203.866L635.139 185.498L642.538 158.149L661.27 177.368Z" fill="white"/>
<path d="M664.002 176.809L656.579 204.511L714.308 188.998L698.979 246.208L725.251 239.693L740.42 183.085L720.042 162.78L691.479 170.617L670.661 149.548L644.227 156.665L664.002 176.809Z" fill="white"/>
<path d="M684.497 199.083L677.734 226.848L696.856 246.053L710.931 191.966L684.497 199.083Z" fill="white"/>
<path d="M865.61 297.108L885.007 277.711L891.62 303.721L872.223 323.119L865.61 297.108Z" fill="white"/>
<path d="M862.965 296.227L883.244 275.948L825.493 260.518L867.373 218.637L842 211.5L799.923 252.583L807.418 280.356L836.073 287.851L843.568 316.506L870.019 323.56L862.965 296.227Z" fill="white"/>
<path d="M856.352 266.69L876.631 246.411L869.137 220.401L829.901 259.636L856.352 266.69Z" fill="white"/>
<path d="M1185.2 275.074L1204.6 255.677L1211.21 281.687L1191.82 301.084L1185.2 275.074Z" fill="white"/>
<path d="M1182.56 274.193L1202.84 253.914L1145.09 238.484L1186.97 196.603L1160.96 189.109L1119.52 230.548L1124.01 257.54L1155.67 265.816L1163.16 294.472L1189.61 301.525L1182.56 274.193Z" fill="white"/>
<path d="M1175.94 244.656L1196.22 224.377L1188.73 198.366L1149.49 237.602L1175.94 244.656Z" fill="white"/>
<path d="M1065.62 243.034L1058.52 216.536L1039.79 235.756L1046.89 262.253L1065.62 243.034Z" fill="white"/>
<path d="M1068.36 243.593L1060.93 215.891L1118.66 231.404L1103.33 174.194L1129.61 180.708L1144.77 237.316L1124.4 257.622L1095.83 249.785L1075.01 270.853L1048.58 263.737L1068.36 243.593Z" fill="white"/>
<path d="M1088.85 221.319L1081.43 193.617L1100.92 174.839L1115.28 228.436L1088.85 221.319Z" fill="white"/>
<path d="M1177.06 352.609L1169.96 326.112L1151.23 345.331L1158.33 371.829L1177.06 352.609Z" fill="white"/>
<path d="M1179.79 353.168L1172.37 325.466L1230.1 340.98L1214.77 283.769L1241.04 290.284L1256.21 346.892L1235.83 367.197L1207.27 359.36L1186.45 380.429L1160.02 373.312L1179.79 353.168Z" fill="white"/>
<path d="M1200.29 330.895L1192.87 303.193L1212.36 284.415L1226.72 338.012L1200.29 330.895Z" fill="white"/>
<path d="M771.393 350.895L799.095 358.318L783.581 300.589L840.792 315.918L834.277 289.646L777.669 274.477L757.364 294.855L765.201 323.418L744.132 344.236L751.249 370.67L771.393 350.895Z" fill="white"/>
<path d="M1118.48 338.809L1091.98 331.709L1099.26 357.541L1125.76 364.641L1118.48 338.809Z" fill="white"/>
<path d="M1120.33 336.723L1092.62 329.3L1134.92 287.062L1077.71 271.733L1096.49 252.237L1153.1 267.405L1160.5 295.205L1139.43 316.023L1147.26 344.587L1127.88 363.921L1120.33 336.723Z" fill="white"/>
<path d="M1111.29 307.837L1083.58 300.414L1077.07 274.142L1130.67 288.503L1111.29 307.837Z" fill="white"/>
<path d="M1039.46 344.554L1011.74 337.127L1019.63 363.122L1047.35 370.549L1039.46 344.554Z" fill="white"/>
<path d="M1041.37 342.482L1012.39 334.718L1056.02 292.836L996.173 276.801L1015.53 257.461L1074.75 273.328L1081.73 301.081L1061.05 321.938L1069.55 350.68L1049.56 369.851L1041.37 342.482Z" fill="white"/>
<path d="M1031.6 313.403L1002.62 305.638L995.528 279.21L1051.59 294.232L1031.6 313.403Z" fill="white"/>
<path d="M988.187 249.202L1007.58 229.804L1014.2 255.814L994.8 275.212L988.187 249.202Z" fill="white"/>
<path d="M985.542 248.32L1005.82 228.041L948.07 212.611L990.572 170.372L964.538 163.046L922.231 205.026L929.995 232.45L958.65 239.944L966.145 268.599L992.596 275.653L985.542 248.32Z" fill="white"/>
<path d="M978.929 218.783L999.542 198.076L992.774 171.647L952.478 211.729L978.929 218.783Z" fill="white"/>
<path d="M1307.78 227.167L1327.18 207.77L1333.79 233.78L1314.39 253.177L1307.78 227.167Z" fill="white"/>
<path d="M1305.13 226.285L1325.41 206.006L1267.66 190.577L1309.54 148.696L1283.53 141.201L1242.09 182.641L1249.59 210.415L1278.24 217.909L1285.74 246.565L1312.19 253.618L1305.13 226.285Z" fill="white"/>
<path d="M1298.52 196.748L1318.8 176.469L1311.31 150.459L1272.07 189.695L1298.52 196.748Z" fill="white"/>
<path d="M897.683 224.791L878.285 244.188L870.988 218.766L891.07 198.781L897.683 224.791Z" fill="white"/>
<path d="M900.328 225.673L880.048 245.952L937.8 261.381L895.919 303.262L921.929 310.757L963.369 269.317L955.875 241.543L927.219 234.049L919.725 205.393L893.274 198.34L900.328 225.673Z" fill="white"/>
<path d="M906.94 255.209L887.2 275.873L894.158 302.067L933.391 262.263L906.94 255.209Z" fill="white"/>
<path d="M1217.28 202.757L1197.88 222.154L1190.58 196.731L1210.66 176.746L1217.28 202.757Z" fill="white"/>
<path d="M1219.92 203.638L1199.64 223.918L1257.39 239.347L1215.51 281.228L1241.52 288.723L1282.96 247.283L1275.47 219.509L1246.81 212.015L1239.32 183.359L1212.87 176.306L1219.92 203.638Z" fill="white"/>
<path d="M1226.53 233.175L1206.79 253.839L1213.75 280.032L1252.98 240.229L1226.53 233.175Z" fill="white"/>
<path d="M1074.01 164.368L1081.11 190.866L1100.14 172.498L1092.74 145.149L1074.01 164.368Z" fill="white"/>
<path d="M1071.28 163.809L1078.7 191.511L1020.97 175.998L1036.3 233.208L1010.03 226.693L994.859 170.085L1015.24 149.78L1043.8 157.617L1064.62 136.548L1091.05 143.665L1071.28 163.809Z" fill="white"/>
<path d="M1050.78 186.083L1057.55 213.848L1038.42 233.053L1024.35 178.966L1050.78 186.083Z" fill="white"/>
<path d="M1199.11 543.585L1199.11 516.153L1222.17 529.869L1222.17 557.301L1199.11 543.585Z" fill="white"/>
<path d="M1196.61 544.833L1196.61 516.154L1144.86 546.079L1144.86 486.851L1121.88 499.746L1121.17 558.549L1146.11 572.888L1171.67 557.925L1197.23 572.888L1220.93 559.172L1196.61 544.833Z" fill="white"/>
<path d="M1171.05 528.623L1171.05 499.944L1147.36 486.851L1147.36 542.339L1171.05 528.623Z" fill="white"/>
<path d="M1409.51 302.019L1409.51 274.586L1432.58 288.302L1432.58 315.735L1409.51 302.019Z" fill="white"/>
<path d="M1407.02 303.266L1407.02 274.587L1355.27 304.513L1355.27 245.284L1331.58 258.377L1331.58 316.982L1353.85 332.888L1382.08 316.358L1407.64 331.321L1431.33 317.605L1407.02 303.266Z" fill="white"/>
<path d="M1381.46 287.056L1381.46 258.377L1357.76 245.284L1357.76 300.772L1381.46 287.056Z" fill="white"/>
<path d="M1302.3 363.918L1278.54 350.202L1278.89 377.037L1302.64 390.753L1302.3 363.918Z" fill="white"/>
<path d="M1304.63 362.381L1279.79 348.042L1331.58 318.191L1280.29 288.576L1303.47 274.605L1354.22 303.908L1354.17 332.675L1328.43 347.33L1328.61 376.949L1304.89 390.608L1304.63 362.381Z" fill="white"/>
<path d="M1303.37 332.139L1278.53 317.8L1279.04 290.736L1327.09 318.48L1303.37 332.139Z" fill="white"/>
<path d="M1458.58 362.601L1434.82 348.885L1435.17 375.721L1458.92 389.437L1458.58 362.601Z" fill="white"/>
<path d="M1460.91 361.065L1436.07 346.725L1487.86 316.874L1436.57 287.26L1459.75 273.289L1510.5 302.591L1510.45 331.358L1484.71 346.014L1484.89 375.633L1461.17 389.292L1460.91 361.065Z" fill="white"/>
<path d="M1459.65 330.823L1434.81 316.483L1435.32 289.42L1483.37 317.164L1459.65 330.823Z" fill="white"/>
<path d="M1170.52 648.24L1195.35 633.9L1143.56 604.049L1194.86 574.435L1171.67 560.464L1120.92 589.766L1120.97 618.533L1146.71 633.189L1146.53 662.807L1170.25 676.467L1170.52 648.24Z" fill="white"/>
<path d="M1407.39 394.268L1383.64 407.985L1407.05 421.104L1430.81 407.388L1407.39 394.268Z" fill="white"/>
<path d="M1407.23 391.485L1382.39 405.825L1382.43 346.048L1331.14 375.662L1330.63 348.598L1381.39 319.296L1406.27 333.723L1406.1 363.342L1431.84 377.997L1431.8 405.373L1407.23 391.485Z" fill="white"/>
<path d="M1380.41 377.453L1355.57 391.793L1332.39 377.822L1380.44 350.078L1380.41 377.453Z" fill="white"/>
<path d="M1355.58 454.204L1330.73 468.551L1354.69 481.355L1379.54 467.007L1355.58 454.204Z" fill="white"/>
<path d="M1355.47 451.392L1329.49 466.392L1330.72 405.925L1277.07 436.904L1277.08 409.538L1330.17 378.886L1354.74 393.573L1354.86 422.947L1381.19 437.258L1380.61 464.949L1355.47 451.392Z" fill="white"/>
<path d="M1328 437.733L1302.02 452.733L1278.31 439.063L1328.58 410.042L1328 437.733Z" fill="white"/>
<path d="M1251.9 423.035L1251.9 395.603L1274.97 409.319L1274.97 436.751L1251.9 423.035Z" fill="white"/>
<path d="M1249.41 424.282L1249.41 395.603L1197.66 425.529L1197.85 365.608L1174.26 378.836L1174.03 438.436L1198.91 452.338L1224.47 437.375L1250.03 452.338L1273.73 438.622L1249.41 424.282Z" fill="white"/>
<path d="M1223.85 408.072L1223.78 378.854L1200.31 364.952L1200.16 421.788L1223.85 408.072Z" fill="white"/>
<path d="M1462.31 181.469L1462.31 154.037L1485.38 167.753L1485.38 195.185L1462.31 181.469Z" fill="white"/>
<path d="M1459.82 182.716L1459.82 154.037L1408.07 183.963L1408.07 124.734L1384.38 137.827L1384.38 196.432L1409.32 210.771L1434.88 195.808L1460.44 210.771L1484.13 197.055L1459.82 182.716Z" fill="white"/>
<path d="M1434.25 166.506L1434.25 137.827L1410.56 124.734L1410.56 180.222L1434.25 166.506Z" fill="white"/>
<path d="M1170.65 469.771V497.203L1147.51 484.386L1147.58 456.054L1170.65 469.771Z" fill="white"/>
<path d="M1173.14 468.524V497.203L1224.89 467.277V526.505L1248.58 513.413V454.808L1223.64 440.468L1198.08 455.431L1172.52 440.468L1148.83 454.184L1173.14 468.524Z" fill="white"/>
<path d="M1198.7 484.734L1199.36 513.304L1222.8 526.905L1222.39 471.018L1198.7 484.734Z" fill="white"/>
<path d="M1381.05 228.204V255.636L1357.92 242.819L1357.99 214.488L1381.05 228.204Z" fill="white"/>
<path d="M1383.55 226.957V255.636L1435.29 225.71V284.938L1458.98 271.846V213.241L1434.05 198.901L1408.49 213.864L1382.92 198.901L1359.23 212.618L1383.55 226.957Z" fill="white"/>
<path d="M1409.11 243.167L1409.76 271.737L1433.2 285.338L1432.8 229.451L1409.11 243.167Z" fill="white"/>
<path d="M1252.6 302.365L1276.36 316.081L1276.83 289.636L1252.26 275.529L1252.6 302.365Z" fill="white"/>
<path d="M1250.28 303.901L1275.11 318.24L1223.32 348.092L1274.62 377.706L1251.43 391.677L1200.68 362.374L1200.73 333.607L1226.47 318.952L1226.29 289.333L1250.02 275.674L1250.28 303.901Z" fill="white"/>
<path d="M1251.53 334.143L1275.95 348.993L1276.01 376.095L1227.81 347.802L1251.53 334.143Z" fill="white"/>
</svg>
