<svg width="28" height="28" viewBox="0 0 28 28" fill="none" xmlns="http://www.w3.org/2000/svg">
<path d="M5.8334 6.99984C5.50284 6.99984 5.22557 6.88784 5.00157 6.66384C4.77757 6.43984 4.66595 6.16295 4.66673 5.83317C4.66673 5.50262 4.77873 5.22534 5.00273 5.00134C5.22673 4.77734 5.50362 4.66573 5.8334 4.66651H22.1667C22.4973 4.66651 22.7746 4.77851 22.9986 5.00251C23.2226 5.22651 23.3342 5.5034 23.3334 5.83317C23.3334 6.16373 23.2214 6.44101 22.9974 6.66501C22.7734 6.88901 22.4965 7.00062 22.1667 6.99984H5.8334ZM5.8334 23.3332C5.50284 23.3332 5.22557 23.2212 5.00157 22.9972C4.77757 22.7732 4.66595 22.4963 4.66673 22.1665V16.3332H4.46257C4.09312 16.3332 3.79173 16.192 3.5584 15.9097C3.32507 15.6273 3.24729 15.3018 3.32507 14.9332L4.49173 9.09984C4.55007 8.82762 4.68618 8.60401 4.90006 8.42901C5.11395 8.25401 5.35701 8.16651 5.62923 8.16651H22.3709C22.6431 8.16651 22.8862 8.25401 23.1001 8.42901C23.314 8.60401 23.4501 8.82762 23.5084 9.09984L24.6751 14.9332C24.7528 15.3026 24.6751 15.6281 24.4417 15.9097C24.2084 16.1912 23.907 16.3324 23.5376 16.3332H23.3334V22.1665C23.3334 22.4971 23.2214 22.7743 22.9974 22.9983C22.7734 23.2223 22.4965 23.334 22.1667 23.3332C21.8362 23.3332 21.5589 23.2212 21.3349 22.9972C21.1109 22.7732 20.9993 22.4963 21.0001 22.1665V16.3332H16.3334V22.1665C16.3334 22.4971 16.2214 22.7743 15.9974 22.9983C15.7734 23.2223 15.4965 23.334 15.1667 23.3332H5.8334ZM7.00007 20.9998H14.0001V16.3332H7.00007V20.9998ZM5.89173 13.9998H22.1084L21.4084 10.4998H6.59173L5.89173 13.9998Z" fill="white"/>
</svg>
