<svg width="28" height="28" viewBox="0 0 28 28" fill="none" xmlns="http://www.w3.org/2000/svg">
<path d="M13.9998 4.6665C15.2375 4.6665 16.4245 5.15817 17.2997 6.03334C18.1748 6.90851 18.6665 8.09549 18.6665 9.33317C18.6665 10.5708 18.1748 11.7578 17.2997 12.633C16.4245 13.5082 15.2375 13.9998 13.9998 13.9998C12.7622 13.9998 11.5752 13.5082 10.7 12.633C9.82484 11.7578 9.33317 10.5708 9.33317 9.33317C9.33317 8.09549 9.82484 6.90851 10.7 6.03334C11.5752 5.15817 12.7622 4.6665 13.9998 4.6665ZM13.9998 6.99984C13.381 6.99984 12.7875 7.24567 12.3499 7.68325C11.9123 8.12084 11.6665 8.71433 11.6665 9.33317C11.6665 9.95201 11.9123 10.5455 12.3499 10.9831C12.7875 11.4207 13.381 11.6665 13.9998 11.6665C14.6187 11.6665 15.2122 11.4207 15.6498 10.9831C16.0873 10.5455 16.3332 9.95201 16.3332 9.33317C16.3332 8.71433 16.0873 8.12084 15.6498 7.68325C15.2122 7.24567 14.6187 6.99984 13.9998 6.99984ZM13.9998 15.1665C17.1148 15.1665 23.3332 16.7182 23.3332 19.8332V23.3332H4.6665V19.8332C4.6665 16.7182 10.8848 15.1665 13.9998 15.1665ZM13.9998 17.3832C10.5348 17.3832 6.88317 19.0865 6.88317 19.8332V21.1165H21.1165V19.8332C21.1165 19.0865 17.4648 17.3832 13.9998 17.3832Z" fill="white"/>
</svg>
